<svg width="280" height="349" viewBox="0 0 280 349" fill="none" xmlns="http://www.w3.org/2000/svg">
<g filter="url(#filter0_f_64_183)">
<path fill-rule="evenodd" clip-rule="evenodd" d="M136.79 148.084L176.955 160.557C191.86 165.185 207.695 156.854 212.324 141.949C216.952 127.044 208.621 111.209 193.716 106.581L153.551 94.1084L136.79 148.084ZM250.098 153.679C261.204 117.912 241.213 79.9133 205.446 68.8066L127.507 44.6045L87.2863 174.128L165.225 198.331C200.992 209.437 238.991 189.446 250.098 153.679Z" fill="#3A3656"/>
<path fill-rule="evenodd" clip-rule="evenodd" d="M105.505 248.824L143.272 260.551C159.501 265.591 176.744 256.52 181.783 240.29C186.823 224.06 177.752 206.818 161.522 201.778L123.756 190.051L105.505 248.824ZM219.557 252.02C231.075 214.928 210.344 175.522 173.252 164.004L97.7116 140.547L56.0013 274.868L131.542 298.325C168.633 309.843 208.039 289.112 219.557 252.02Z" fill="#3A3656"/>
<path d="M66.5542 240.852L56.1266 274.432L18.073 262.615L28.5006 229.035L66.5542 240.852Z" fill="#3A3656"/>
<path d="M127.496 44.6025L117.068 78.1828L79.0149 66.3662L89.4425 32.7859L127.496 44.6025Z" fill="#3A3656"/>
<path d="M165.985 56.5518L132.688 46.2122L141.626 17.4291L174.923 27.7687L165.985 56.5518Z" fill="#3A3656"/>
<path d="M85.541 315.601L52.2441 305.261L61.1821 276.478L94.479 286.817L85.541 315.601Z" fill="#3A3656"/>
<path d="M215.278 71.8594L181.981 61.5198L190.919 32.7367L224.216 43.0763L215.278 71.8594Z" fill="#3A3656"/>
<path d="M134.839 330.908L101.542 320.569L110.48 291.786L143.777 302.125L134.839 330.908Z" fill="#3A3656"/>
</g>
<defs>
<filter id="filter0_f_64_183" x="0.0732422" y="-0.570801" width="271.093" height="349.479" filterUnits="userSpaceOnUse" color-interpolation-filters="sRGB">
<feFlood flood-opacity="0" result="BackgroundImageFix"/>
<feBlend mode="normal" in="SourceGraphic" in2="BackgroundImageFix" result="shape"/>
<feGaussianBlur stdDeviation="9" result="effect1_foregroundBlur_64_183"/>
</filter>
</defs>
</svg>
